<?xml version="1.0" standalone="no"?>
<!DOCTYPE svg PUBLIC "-//W3C//DTD SVG 20010904//EN"
 "http://www.w3.org/TR/2001/REC-SVG-20010904/DTD/svg10.dtd">
<svg version="1.0" xmlns="http://www.w3.org/2000/svg"
 width="1024.000000pt" height="1024.000000pt" viewBox="0 0 1024.000000 1024.000000"
 preserveAspectRatio="xMidYMid meet">
<metadata>
Created by potrace 1.16, written by Peter Selinger 2001-2019
</metadata>
<g transform="translate(0.000000,1024.000000) scale(0.100000,-0.100000)"
fill="#000000" stroke="none">
<path d="M6471 6720 c-90 -19 -191 -104 -233 -198 -34 -72 -32 -199 3 -272 33
-70 96 -132 168 -168 48 -23 69 -27 141 -27 76 0 93 3 152 33 71 35 117 81
159 162 20 37 24 60 24 135 0 77 -4 98 -26 146 -68 144 -229 222 -388 189z"/>
<path d="M3228 6705 c-282 -107 -301 -480 -33 -623 44 -24 61 -27 145 -27 85
0 101 3 148 28 71 37 128 97 160 166 21 45 26 71 27 136 0 71 -4 88 -33 147
-36 73 -87 124 -161 160 -57 28 -195 35 -253 13z"/>
<path d="M6412 5982 c-71 -26 -118 -66 -156 -132 -27 -47 -42 -110 -112 -455
l-80 -400 -320 -5 c-309 -5 -320 -6 -364 -28 -57 -29 -99 -80 -122 -146 -16
-46 -17 -100 -18 -596 0 -345 4 -559 10 -582 43 -154 250 -175 328 -33 15 26
18 85 22 465 l5 434 400 1 400 0 57 28 c79 39 133 103 158 186 11 36 58 258
105 492 96 481 101 533 59 616 -67 136 -233 204 -372 155z"/>
<path d="M3270 5972 c-25 -9 -70 -41 -102 -72 -61 -59 -88 -123 -88 -205 0
-67 186 -979 209 -1024 33 -63 77 -108 139 -138 l57 -28 403 -3 402 -3 0 -412
c0 -253 4 -426 10 -449 13 -44 52 -93 91 -113 15 -8 54 -15 86 -15 46 0 66 5
96 25 75 51 72 23 75 654 2 487 1 571 -13 617 -17 60 -57 111 -113 146 -36 22
-45 23 -366 28 l-329 5 -78 390 c-43 215 -86 410 -95 434 -21 55 -85 126 -139
154 -55 28 -183 33 -245 9z"/>
<path d="M6935 5591 c-25 -11 -47 -30 -58 -52 -10 -19 -53 -209 -97 -424 -44
-214 -83 -404 -88 -420 -29 -95 -103 -182 -192 -224 -55 -25 -58 -26 -370 -31
-288 -5 -317 -7 -343 -24 -69 -47 -80 -151 -23 -214 l34 -37 328 -3 c361 -3
394 0 500 53 130 64 221 155 286 291 32 65 48 124 89 320 142 681 140 666 98
725 -17 25 -83 59 -112 59 -6 0 -30 -9 -52 -19z"/>
<path d="M2845 5586 c-48 -21 -68 -51 -72 -109 -4 -49 9 -120 146 -777 25
-121 52 -193 100 -266 76 -118 199 -213 331 -256 59 -19 94 -21 360 -26 344
-5 385 0 427 54 47 62 32 165 -31 203 -28 18 -57 20 -336 23 -291 4 -308 5
-365 28 -82 32 -164 114 -194 195 -12 32 -58 237 -102 453 -44 217 -87 408
-95 424 -30 59 -104 83 -169 54z"/>
</g>
</svg>
