<svg height="512" viewBox="0 0 256 256" width="512" xmlns="http://www.w3.org/2000/svg"><rect fill="#cecece" height="151.106" rx="13.665" width="219.26" x="18.37" y="30.053"/><path d="m28.37 167.494v-123.777a13.681 13.681 0 0 1 13.665-13.664h-10a13.681 13.681 0 0 0 -13.665 13.664v123.777a13.681 13.681 0 0 0 13.665 13.665h10a13.681 13.681 0 0 1 -13.665-13.665z" fill="#afafaf"/><path d="m227.63 167.494v-123.777a13.681 13.681 0 0 0 -13.665-13.665h10a13.681 13.681 0 0 1 13.665 13.665v123.777a13.681 13.681 0 0 1 -13.665 13.665h-10a13.681 13.681 0 0 0 13.665-13.665z" fill="#e2e2e2"/><rect fill="#63bce7" height="122.288" rx="5.256" width="202.442" x="26.779" y="38.461"/><path d="m36.779 155.494v-111.777a5.271 5.271 0 0 1 5.256-5.256h-10a5.271 5.271 0 0 0 -5.256 5.256v111.777a5.271 5.271 0 0 0 5.256 5.256h10a5.271 5.271 0 0 1 -5.256-5.256z" fill="#6377e7"/><path d="m219.221 155.494v-111.777a5.271 5.271 0 0 0 -5.256-5.256h10a5.271 5.271 0 0 1 5.256 5.256v111.777a5.271 5.271 0 0 1 -5.256 5.256h-10a5.271 5.271 0 0 0 5.256-5.256z" fill="#63e2e7"/><path d="m158.867 60.941c-.323.9-.69 1.771-1.09 2.63l8.087 8.087-15.9 15.9-8.087-8.087c-.86.4-1.737.766-2.63 1.09v11.439h-22.484v-11.437c-.894-.323-1.771-.69-2.63-1.09l-8.087 8.087-15.9-15.9 8.087-8.087c-.4-.86-.766-1.728-1.09-2.63h-11.443v-22.484h11.442c.323-.894.69-1.771 1.09-2.63l-8.087-8.087 15.9-15.9 8.087 8.1c.86-.4 1.737-.775 2.63-1.1v-11.437h22.482v11.433c.894.323 1.771.7 2.63 1.1l8.087-8.1 15.9 15.9-8.087 8.087c.4.86.766 1.737 1.09 2.63h11.436v22.486z" fill="#f8af23"/><path d="m108.231 63.572c-.4-.86-.766-1.728-1.09-2.63h-10c.323.9.69 1.771 1.09 2.63l-8.087 8.087 15.9 15.9 5-5-10.9-10.9z" fill="#f87023"/><path d="m108.231 35.829-8.087-8.087 10.9-10.9-5-5-15.9 15.9 8.087 8.087c-.4.86-.766 1.737-1.09 2.63h10c.324-.894.69-1.77 1.09-2.63z" fill="#f87023"/><path d="m85.701 38.459h10v22.482h-10z" fill="#f87023"/><circle cx="128" cy="49.702" fill="#f46275" r="14.317"/><circle cx="128" cy="152.998" fill="#9e9e9e" r="39.978"/><path d="m98.022 153a39.976 39.976 0 0 1 34.978-39.658 39.978 39.978 0 1 0 0 79.311 39.976 39.976 0 0 1 -34.978-39.653z" fill="#707070"/><path d="m109.249 192.975h37.5a44.65 44.65 0 0 1 44.65 44.65 0 0 0 0 1 0 0h-126.799a0 0 0 0 1 0 0 44.65 44.65 0 0 1 44.65-44.65z" fill="#f46275"/><path d="m119.249 192.975h-10a44.649 44.649 0 0 0 -44.649 44.65h10a44.649 44.649 0 0 1 44.649-44.65z" fill="#f43075"/><g fill="#3f3679"><path d="m27.323 247.1h-18a1.5 1.5 0 1 0 0 3h18a1.5 1.5 0 1 0 0-3z"/><path d="m246.68 247.1h-18a1.5 1.5 0 0 0 0 3h18a1.5 1.5 0 0 0 0-3z"/><path d="m218.479 247.1h-180.958a1.5 1.5 0 0 0 0 3h180.958a1.5 1.5 0 0 0 0-3z"/><path d="m9.32 239.125h237.36a1.5 1.5 0 0 0 0-3h-53.818a46.2 46.2 0 0 0 -46.111-44.649h-3.292a41.588 41.588 0 0 0 13.494-8.817h67.013a15.182 15.182 0 0 0 15.164-15.165v-123.777a15.182 15.182 0 0 0 -15.164-15.165h-56.881a1.478 1.478 0 0 0 -.165-1.873l-15.9-15.9a1.5 1.5 0 0 0 -2.121 0l-7.358 7.358c-.27-.117-.535-.228-.8-.334v-10.403a1.5 1.5 0 0 0 -1.5-1.5h-22.483a1.5 1.5 0 0 0 -1.5 1.5v10.4c-.265.106-.53.218-.8.334l-7.358-7.353a1.544 1.544 0 0 0 -2.121 0l-15.9 15.9a1.478 1.478 0 0 0 -.165 1.873h-56.88a15.182 15.182 0 0 0 -15.164 15.163v123.777a15.182 15.182 0 0 0 15.164 15.165h67.013a41.588 41.588 0 0 0 13.494 8.817h-3.292a46.2 46.2 0 0 0 -46.111 44.649h-53.818a1.5 1.5 0 0 0 0 3zm226.81-195.408v123.777a12.178 12.178 0 0 1 -12.164 12.165h-64.225a41.366 41.366 0 0 0 8.683-17.409h55.541a6.763 6.763 0 0 0 6.755-6.756v-111.777a6.763 6.763 0 0 0 -6.755-6.756h-53.641-.024-10.4c-.106-.264-.218-.529-.335-.8l4.607-4.607h59.8a12.178 12.178 0 0 1 12.158 12.163zm-149.608 109.283a41.626 41.626 0 0 0 .472 6.252h-54.96a3.76 3.76 0 0 1 -3.755-3.756v-111.779a3.76 3.76 0 0 1 3.755-3.756h52.166v20.983a1.5 1.5 0 0 0 1.5 1.5h10.4c.106.264.218.529.335.8l-7.355 7.356a1.5 1.5 0 0 0 0 2.121l15.9 15.9a1.5 1.5 0 0 0 2.121 0l7.358-7.358c.27.116.535.228.8.334v10.403a1.5 1.5 0 0 0 1.5 1.5h22.484a1.5 1.5 0 0 0 1.5-1.5v-10.4c.265-.106.53-.218.8-.334l7.358 7.358a1.544 1.544 0 0 0 2.121 0l15.9-15.9a1.5 1.5 0 0 0 0-2.121l-7.358-7.358c.117-.27.229-.536.335-.8h10.4a1.5 1.5 0 0 0 1.5-1.5v-20.984h52.166a3.76 3.76 0 0 1 3.755 3.756v111.777a3.76 3.76 0 0 1 -3.755 3.756h-54.96a41.479 41.479 0 1 0 -82.483-6.25zm19.517-139.037 7.03 7.03a1.5 1.5 0 0 0 1.7.3c.87-.406 1.69-.749 2.507-1.046a1.5 1.5 0 0 0 .986-1.409v-9.938h19.484v9.934a1.5 1.5 0 0 0 .987 1.41c.813.3 1.633.638 2.506 1.045a1.5 1.5 0 0 0 1.7-.3l7.03-7.03 13.777 13.777-7.029 7.03a1.5 1.5 0 0 0 -.3 1.694c.409.879.751 1.7 1.046 2.507a1.5 1.5 0 0 0 1.409.987h9.928v19.49h-9.935a1.5 1.5 0 0 0 -1.409.987c-.295.808-.637 1.628-1.046 2.508a1.5 1.5 0 0 0 .3 1.694l7.029 7.03-13.778 13.777-7.03-7.03a1.5 1.5 0 0 0 -1.7-.3c-.873.408-1.693.75-2.506 1.045a1.5 1.5 0 0 0 -.987 1.41v9.935h-19.48v-9.933a1.5 1.5 0 0 0 -.986-1.409c-.816-.3-1.637-.64-2.507-1.046a1.5 1.5 0 0 0 -1.7.3l-7.03 7.03-13.773-13.78 7.029-7.03a1.5 1.5 0 0 0 .3-1.694c-.409-.879-.751-1.7-1.046-2.508a1.5 1.5 0 0 0 -1.409-.987h-9.936v-19.484h9.935a1.5 1.5 0 0 0 1.409-.987c.295-.808.637-1.628 1.046-2.507a1.5 1.5 0 0 0 -.3-1.694l-7.029-7.03zm-86.169 153.531v-123.777a12.178 12.178 0 0 1 12.164-12.164h59.8l4.607 4.607c-.117.27-.229.535-.335.8h-10.406a.816.816 0 0 1 -.325 0h-53.341a6.763 6.763 0 0 0 -6.755 6.756v111.778a6.763 6.763 0 0 0 6.755 6.756h55.542a41.367 41.367 0 0 0 8.683 17.409h-64.225a12.178 12.178 0 0 1 -12.164-12.165zm69.652-14.494a38.478 38.478 0 1 1 38.478 38.476 38.521 38.521 0 0 1 -38.478-38.476zm19.727 41.478h37.5a43.2 43.2 0 0 1 43.124 41.649h-123.748a43.2 43.2 0 0 1 43.124-41.651z"/><path d="m128 65.518a15.817 15.817 0 1 0 -15.816-15.818 15.834 15.834 0 0 0 15.816 15.818zm0-28.633a12.817 12.817 0 1 1 -12.816 12.815 12.831 12.831 0 0 1 12.816-12.815z"/></g></svg>