<svg id="Capa_1" enable-background="new 0 0 512 512" height="512" viewBox="0 0 512 512" width="512" xmlns="http://www.w3.org/2000/svg"><g><g fill="#dfe5f2"><path d="m136 0c-8.284 0-15 6.716-15 15v81c0 8.284 6.716 15 15 15s15-6.716 15-15v-81c0-8.284-6.716-15-15-15z"/><path d="m216 0c-8.284 0-15 6.716-15 15v81c0 8.284 6.716 15 15 15s15-6.716 15-15v-81c0-8.284-6.716-15-15-15z"/><path d="m216 401c-8.284 0-15 6.716-15 15v81c0 8.284 6.716 15 15 15s15-6.716 15-15v-81c0-8.284-6.716-15-15-15z"/><path d="m136 401c-8.284 0-15 6.716-15 15v81c0 8.284 6.716 15 15 15s15-6.716 15-15v-81c0-8.284-6.716-15-15-15z"/><path d="m96 121h-81c-8.284 0-15 6.716-15 15s6.716 15 15 15h81c8.284 0 15-6.716 15-15s-6.716-15-15-15z"/><path d="m96 201h-81c-8.284 0-15 6.716-15 15s6.716 15 15 15h81c8.284 0 15-6.716 15-15s-6.716-15-15-15z"/><path d="m96 281h-81c-8.284 0-15 6.716-15 15s6.716 15 15 15h81c8.284 0 15-6.716 15-15s-6.716-15-15-15z"/><path d="m96 361h-81c-8.284 0-15 6.716-15 15s6.716 15 15 15h81c8.284 0 15-6.716 15-15s-6.716-15-15-15z"/></g><path d="m296 0c-8.284 0-15 6.716-15 15v81c0 8.284 6.716 15 15 15s15-6.716 15-15v-81c0-8.284-6.716-15-15-15z" fill="#c7cdde"/><path d="m376 0c-8.284 0-15 6.716-15 15v81c0 8.284 6.716 15 15 15s15-6.716 15-15v-81c0-8.284-6.716-15-15-15z" fill="#c7cdde"/><path d="m497 121h-81c-8.284 0-15 6.716-15 15s6.716 15 15 15h81c8.284 0 15-6.716 15-15s-6.716-15-15-15z" fill="#c7cdde"/><path d="m497 201h-81c-8.284 0-15 6.716-15 15s6.716 15 15 15h81c8.284 0 15-6.716 15-15s-6.716-15-15-15z" fill="#c7cdde"/><path d="m497 281h-81c-8.284 0-15 6.716-15 15s6.716 15 15 15h81c8.284 0 15-6.716 15-15s-6.716-15-15-15z" fill="#c7cdde"/><path d="m497 361h-81c-8.284 0-15 6.716-15 15s6.716 15 15 15h81c8.284 0 15-6.716 15-15s-6.716-15-15-15z" fill="#c7cdde"/><path d="m376 401c-8.284 0-15 6.716-15 15v81c0 8.284 6.716 15 15 15s15-6.716 15-15v-81c0-8.284-6.716-15-15-15z" fill="#c7cdde"/><path d="m296 401c-8.284 0-15 6.716-15 15v81c0 8.284 6.716 15 15 15s15-6.716 15-15v-81c0-8.284-6.716-15-15-15z" fill="#c7cdde"/><path d="m431 111v290c0 16.54-13.46 30-30 30h-290c-16.54 0-30-13.46-30-30v-290c0-16.54 13.46-30 30-30h290c16.54 0 30 13.46 30 30z" fill="#4d5788"/><path d="m431 111v290c0 16.54-13.46 30-30 30h-145v-350h145c16.54 0 30 13.46 30 30z" fill="#313a6b"/><path d="m351 206v100c0 3.98-1.58 7.79-4.39 10.61l-30 30c-2.82 2.81-6.63 4.39-10.61 4.39h-100c-3.98 0-7.79-1.58-10.61-4.39l-30-30c-2.81-2.82-4.39-6.63-4.39-10.61v-100c0-3.98 1.58-7.79 4.39-10.61l30-30c2.82-2.81 6.63-4.39 10.61-4.39h100c3.98 0 7.79 1.58 10.61 4.39l30 30c2.81 2.82 4.39 6.63 4.39 10.61z" fill="#f3d652"/><path d="m351 206v100c0 3.98-1.58 7.79-4.39 10.61l-30 30c-2.82 2.81-6.63 4.39-10.61 4.39h-50v-190h50c3.98 0 7.79 1.58 10.61 4.39l30 30c2.81 2.82 4.39 6.63 4.39 10.61z" fill="#e9bc3e"/></g></svg>